<svg id="Component_55_1293" data-name="Component 55 – 1293" xmlns="http://www.w3.org/2000/svg" width="12" height="12" viewBox="0 0 12 12">
  <path id="_5402417_refresh_rotate_sync_update_reload_icon" data-name="5402417_refresh_rotate_sync_update_reload_icon" d="M13.645,3.254a.574.574,0,0,0-.626.1l-.8.726A5.682,5.682,0,0,0,7.847,2,5.905,5.905,0,0,0,2.028,7.318a5.989,5.989,0,0,0,4.5,6.527A5.828,5.828,0,0,0,13.358,10,.6.6,0,0,0,13,9.232a.582.582,0,0,0-.746.369,4.662,4.662,0,0,1-5.467,3.074,4.791,4.791,0,0,1-3.6-5.224A4.724,4.724,0,0,1,7.847,3.2a4.553,4.553,0,0,1,3.51,1.668l-.971.882a.61.61,0,0,0-.158.666.586.586,0,0,0,.544.384H13.4a.593.593,0,0,0,.585-.6V3.8A.6.6,0,0,0,13.645,3.254Z" transform="translate(-1.99 -2)" fill="#f9f9f9"/>
</svg>
