<svg xmlns="http://www.w3.org/2000/svg" width="40" height="40" viewBox="0 0 40 40">
  <path id="Path_6295" data-name="Path 6295" d="M6.211,21.009v7.714a3.03,3.03,0,0,0,3.158,2.893,3.03,3.03,0,0,0,3.158-2.893V21.009a3.03,3.03,0,0,0-3.158-2.893A3.03,3.03,0,0,0,6.211,21.009Zm12.632,0v7.714A3.03,3.03,0,0,0,22,31.615a3.03,3.03,0,0,0,3.158-2.893V21.009A3.03,3.03,0,0,0,22,18.117,3.03,3.03,0,0,0,18.842,21.009ZM5.158,41.258H38.842a2.9,2.9,0,1,0,0-5.785H5.158a2.9,2.9,0,1,0,0,5.785ZM31.474,21.009v7.714a3.17,3.17,0,0,0,6.316,0V21.009a3.17,3.17,0,0,0-6.316,0ZM20.042,1.706,3.411,9.728A2.378,2.378,0,0,0,2,11.849,2.529,2.529,0,0,0,4.632,14.26H39.389A2.523,2.523,0,0,0,42,11.849a2.378,2.378,0,0,0-1.411-2.121L23.958,1.706a4.5,4.5,0,0,0-3.916,0Z" transform="translate(-2 -1.257)" fill="#fff"/>
</svg>