<svg xmlns="http://www.w3.org/2000/svg" width="37.222" height="40.002" viewBox="0 0 37.222 40.002">
  <g id="Group_9322" data-name="Group 9322" transform="translate(0 12.99)">
    <g id="Group_8927" data-name="Group 8927" transform="translate(-18.314 46.606) rotate(-90)">
      <path id="Path_5771" data-name="Path 5771" d="M-17328.3-7573.521a3.672,3.672,0,0,1-2.379-.874l-9.43-8.009a3.678,3.678,0,0,1-.422-5.182,3.673,3.673,0,0,1,5.18-.424l3.375,2.87v-21.928a3.677,3.677,0,0,1,3.676-3.676,3.675,3.675,0,0,1,3.676,3.676v29.87a3.683,3.683,0,0,1-2.129,3.335A3.679,3.679,0,0,1-17328.3-7573.521Z" transform="translate(17360.994 7629.057)" fill="#fff"/>
      <path id="Path_5772" data-name="Path 5772" d="M-17337.725-7573.521a3.675,3.675,0,0,1-3.676-3.676v-29.87a3.673,3.673,0,0,1,2.133-3.335,3.671,3.671,0,0,1,3.922.535l9.426,8.009a3.674,3.674,0,0,1,.426,5.181,3.684,3.684,0,0,1-5.184.421l-3.371-2.865v21.925A3.675,3.675,0,0,1-17337.725-7573.521Z" transform="translate(17384.217 7629.057)" fill="#fff"/>
    </g>
  </g>
</svg>
