<svg version="1.1" xmlns="http://www.w3.org/2000/svg" width="512" height="512">
  <path d="M0 0 C0.92522461 0.4328833 0.92522461 0.4328833 1.86914062 0.87451172 C30.11731968 14.32221591 49.82388205 38.10732866 60.8125 67.0625 C70.82344338 96.65714069 68.74848717 128.96555864 55.15161133 157.01171875 C49.82847451 167.54660381 43.16001013 176.49208246 35 185 C34.195625 185.845625 33.39125 186.69125 32.5625 187.5625 C31.716875 188.366875 30.87125 189.17125 30 190 C29.34128906 190.65355469 28.68257812 191.30710937 28.00390625 191.98046875 C20.59438465 199.04932269 12.14689435 204.42655282 3 209 C3.680625 209.268125 4.36125 209.53625 5.0625 209.8125 C50.24046292 228.07593182 85.28729339 258.9387016 105.13061523 303.83789062 C112.21836736 320.61605268 120.27635799 344.54730454 117 363 C114.58911033 366.61633451 113.10748564 367.65391074 109 368.9375 C105.04755671 369.01984257 102.5098758 368.20417255 99.41796875 365.73828125 C97.56930428 363.47201213 97.39052942 361.82985849 97 358.9375 C96.75830078 357.32488281 96.75830078 357.32488281 96.51171875 355.6796875 C96.24928416 353.79256244 95.98743816 351.90533172 95.73681641 350.01660156 C90.55441906 311.65058144 71.16358683 277.21054558 40.9375 252.9375 C28.53034031 243.51330592 14.70662224 236.08948275 0 231 C-1.62808594 230.43539062 -1.62808594 230.43539062 -3.2890625 229.859375 C-11.40584605 227.21302708 -19.60915217 225.509007 -28 224 C-28.93046143 223.82654053 -29.86092285 223.65308105 -30.81958008 223.47436523 C-67.83371531 217.95364176 -106.1368952 229.59534024 -136 251.25 C-160.72982498 270.22261705 -178.66455058 295.18029108 -188 325 C-188.35835937 326.1446875 -188.71671875 327.289375 -189.0859375 328.46875 C-191.51315562 336.86363975 -192.88549234 345.18125532 -193.87353516 353.85571289 C-194.59758377 359.75431784 -195.68296207 363.68296207 -200 368 C-203.81150272 368.93489689 -206.10187177 369.3878281 -209.75 367.8125 C-213.6744186 364.65116279 -213.6744186 364.65116279 -215 362 C-217.92936528 326.67286647 -199.00377919 287.78227082 -176.890625 261.4921875 C-174.64421899 258.94243469 -172.33962753 256.46450561 -170 254 C-169.5364209 253.50387207 -169.0728418 253.00774414 -168.59521484 252.49658203 C-155.82006508 238.8923665 -141.49982839 228.6343355 -125 220 C-124.08605469 219.50886719 -123.17210937 219.01773438 -122.23046875 218.51171875 C-116.5252993 215.53470787 -110.62456799 213.24079753 -104.58984375 211.015625 C-102.1084137 210.24179423 -102.1084137 210.24179423 -101 209 C-101.71542969 208.61070312 -102.43085938 208.22140625 -103.16796875 207.8203125 C-133.43360455 190.82770456 -152.63098146 165.2862025 -162 132 C-162.95549743 128.33165811 -163.59392365 124.7677717 -164 121 C-164.13277344 119.77667969 -164.26554687 118.55335938 -164.40234375 117.29296875 C-167.30862402 85.37353313 -158.01284846 54.97165186 -137.59765625 30.30566406 C-104.39783314 -8.94480432 -46.72121135 -21.98345207 0 0 Z M-112 33 C-112.82242188 33.63164063 -113.64484375 34.26328125 -114.4921875 34.9140625 C-131.73971125 49.26013366 -142.15290957 73.53431406 -144.55029297 95.42089844 C-146.97673797 122.54141338 -138.47188727 147.08026498 -121.5078125 168.0859375 C-106.78935127 185.42655774 -87.10596613 195.61841433 -65 200 C-64.05382812 200.19207031 -63.10765625 200.38414062 -62.1328125 200.58203125 C-37.65137183 203.84825837 -11.24429492 197.50220239 8.484375 182.42578125 C29.57435691 165.47300995 43.37259008 142.54838633 46.68359375 115.5234375 C49.13351928 88.24155078 40.84824348 64.34521523 24 43 C23.29810547 42.04673828 23.29810547 42.04673828 22.58203125 41.07421875 C9.2362423 23.868417 -13.90694619 13.06808055 -35 10 C-63.28173328 6.50551763 -90.43735216 14.0718862 -112 33 Z " fill="#fff" transform="translate(305,77)"/>
</svg>
